<svg id="Capa_1" data-name="Capa 1" xmlns="http://www.w3.org/2000/svg" viewBox="0 0 279.06 99.33"><defs><style>.cls-1,.cls-3{fill:#008040;}.cls-1,.cls-2{stroke:#008040;stroke-miterlimit:10;}.cls-2{fill:none;stroke-width:3px;}</style></defs><path class="cls-1" d="M79.19,106.58a34.22,34.22,0,0,1-6.55-.65,29,29,0,0,1-6-1.8l2.09-9.07a18.73,18.73,0,0,0,4.54,1.47,24.74,24.74,0,0,0,5.11.61c2.4,0,3.6-.64,3.6-1.94a1.46,1.46,0,0,0-1.12-1.37A15.55,15.55,0,0,0,78,93.08q-1.75-.33-3.78-.87a13.83,13.83,0,0,1-3.78-1.65,8.51,8.51,0,0,1-2.88-3.21,11.63,11.63,0,0,1-1.11-5.47A10.77,10.77,0,0,1,71,72.81q4.5-3.39,12.35-3.39a34.63,34.63,0,0,1,5.65.44,14.39,14.39,0,0,1,5,1.8l-1.51,8.78a20.56,20.56,0,0,0-8-1.58,12.22,12.22,0,0,0-3.85.43,1.51,1.51,0,0,0-1.19,1.44c0,.53.38.93,1.15,1.22a20.92,20.92,0,0,0,3,.83,33.27,33.27,0,0,1,3.85,1.08,16.45,16.45,0,0,1,3.85,1.91,9.34,9.34,0,0,1,3,3.27,12,12,0,0,1-3.1,14.3Q86.9,106.58,79.19,106.58Z" transform="translate(-65.95 -55.74)"/><path class="cls-1" d="M116.34,106.58A17.22,17.22,0,0,1,101,97.5a19.8,19.8,0,0,1-2.34-9.72A19,19,0,0,1,101,78.21a17.08,17.08,0,0,1,6.37-6.45,17.61,17.61,0,0,1,9-2.34,13.29,13.29,0,0,1,6.84,2,12.47,12.47,0,0,1,5.12,6.41V69.93h15V106H128.15V99.3a12.13,12.13,0,0,1-11.81,7.28ZM121,95.2a6.82,6.82,0,0,0,5-2.12,7.14,7.14,0,0,0,2.09-5.22,6.66,6.66,0,0,0-2.09-5.08,7.43,7.43,0,0,0-10.22.11,7.29,7.29,0,0,0,0,10.22A7,7,0,0,0,121,95.2Z" transform="translate(-65.95 -55.74)"/><path class="cls-1" d="M177.4,106.58a12.13,12.13,0,0,1-11.81-7.28V106H150.47V58.55l15.26-2.23v21a12.27,12.27,0,0,1,4.94-6,13,13,0,0,1,6.73-1.91,17.58,17.58,0,0,1,9,2.34,17.19,17.19,0,0,1,6.33,6.45,19,19,0,0,1,2.34,9.57,19.8,19.8,0,0,1-2.34,9.72,17.35,17.35,0,0,1-6.33,6.66A17.16,17.16,0,0,1,177.4,106.58ZM172.72,95.2a7,7,0,0,0,5.18-2.09,7.29,7.29,0,0,0,0-10.22,7.43,7.43,0,0,0-10.22-.11,6.69,6.69,0,0,0-2.09,5.08,7.18,7.18,0,0,0,2.09,5.22A6.82,6.82,0,0,0,172.72,95.2Z" transform="translate(-65.95 -55.74)"/><path class="cls-1" d="M219.45,106.58a23.59,23.59,0,0,1-10.8-2.38,17.61,17.61,0,0,1-9.94-16.27,17.46,17.46,0,0,1,2.7-9.76,18.15,18.15,0,0,1,7.38-6.44,26.25,26.25,0,0,1,21.6,0,17.24,17.24,0,0,1,9.86,16.17,18,18,0,0,1-2.62,9.75,17.83,17.83,0,0,1-7.31,6.56A24,24,0,0,1,219.45,106.58Zm.14-10.8a6.16,6.16,0,0,0,4.86-2.2,8.31,8.31,0,0,0,1.91-5.65,8.42,8.42,0,0,0-1.87-5.65,6,6,0,0,0-4.76-2.2,6.29,6.29,0,0,0-5,2.2,9.31,9.31,0,0,0,0,11.3A6.16,6.16,0,0,0,219.59,95.78Z" transform="translate(-65.95 -55.74)"/><path class="cls-1" d="M245.65,106V69.93h15v9a13.34,13.34,0,0,1,4.5-7.2,11.79,11.79,0,0,1,7.31-2.31l1.8,12.75a26.18,26.18,0,0,0-3.39-.22q-10,0-10,8.21V106Z" transform="translate(-65.95 -55.74)"/><path class="cls-1" d="M299.15,96.5a24.33,24.33,0,0,0,4.43-.44,19.32,19.32,0,0,0,4.79-1.58l1.72,9.29a24.7,24.7,0,0,1-5.79,2.09,32.2,32.2,0,0,1-7.17.72,28.07,28.07,0,0,1-12.2-2.38,17.05,17.05,0,0,1-7.45-6.55A18.32,18.32,0,0,1,275,88a17.63,17.63,0,0,1,2.7-9.79,18.26,18.26,0,0,1,7.23-6.48,21.75,21.75,0,0,1,10-2.31q8.14,0,12.46,5.08t4.32,14.44l-21.46,2.73Q292.61,96.5,299.15,96.5ZM289.07,85.05l11.3-2.38a5.2,5.2,0,0,0-1.58-3.42,4.79,4.79,0,0,0-3.24-1.11,5.69,5.69,0,0,0-4.57,2A8.25,8.25,0,0,0,289.07,85.05Z" transform="translate(-65.95 -55.74)"/><path class="cls-1" d="M328.31,106.58a34.14,34.14,0,0,1-6.55-.65,29,29,0,0,1-6-1.8l2.09-9.07a18.44,18.44,0,0,0,4.54,1.47,24.66,24.66,0,0,0,5.11.61c2.4,0,3.6-.64,3.6-1.94A1.47,1.47,0,0,0,330,93.83a15.55,15.55,0,0,0-2.88-.75q-1.77-.33-3.78-.87a13.83,13.83,0,0,1-3.78-1.65,8.35,8.35,0,0,1-2.88-3.21,11.63,11.63,0,0,1-1.11-5.47,10.74,10.74,0,0,1,4.5-9.07q4.49-3.39,12.34-3.39a34.76,34.76,0,0,1,5.66.44,14.39,14.39,0,0,1,5,1.8l-1.51,8.78a20.59,20.59,0,0,0-8-1.58,12.33,12.33,0,0,0-3.86.43,1.51,1.51,0,0,0-1.18,1.44c0,.53.38.93,1.15,1.22a20.55,20.55,0,0,0,3,.83,33.84,33.84,0,0,1,3.85,1.08,16.45,16.45,0,0,1,3.85,1.91,9.44,9.44,0,0,1,3,3.27,10.87,10.87,0,0,1,1.15,5.3,10.69,10.69,0,0,1-4.25,9Q336,106.58,328.31,106.58Z" transform="translate(-65.95 -55.74)"/><path class="cls-1" d="M123.29,154l-12.6-36.07h16.7l6.27,21.6,6.12-21.6H153L140.79,154Z" transform="translate(-65.95 -55.74)"/><path class="cls-1" d="M178.08,144.5a24.33,24.33,0,0,0,4.43-.44,19.32,19.32,0,0,0,4.79-1.58l1.72,9.29a24.7,24.7,0,0,1-5.79,2.09,32.2,32.2,0,0,1-7.17.72,28.07,28.07,0,0,1-12.2-2.38,17.05,17.05,0,0,1-7.45-6.55,18.32,18.32,0,0,1-2.52-9.65,17.63,17.63,0,0,1,2.7-9.79,18.26,18.26,0,0,1,7.23-6.48,21.75,21.75,0,0,1,10-2.31q8.14,0,12.46,5.08t4.32,14.44l-21.46,2.73Q171.54,144.5,178.08,144.5ZM168,133.05l11.3-2.38a5.2,5.2,0,0,0-1.58-3.42,4.79,4.79,0,0,0-3.24-1.11,5.7,5.7,0,0,0-4.57,2A8.32,8.32,0,0,0,168,133.05Z" transform="translate(-65.95 -55.74)"/><path class="cls-1" d="M195.65,154V117.93h15v9a13.34,13.34,0,0,1,4.5-7.2,11.79,11.79,0,0,1,7.31-2.31l1.8,12.75a26.14,26.14,0,0,0-3.38-.22q-10,0-10,8.21V154Z" transform="translate(-65.95 -55.74)"/><path class="cls-1" d="M242.66,154.58a17.22,17.22,0,0,1-15.37-9.08,19.8,19.8,0,0,1-2.34-9.72,19,19,0,0,1,2.34-9.57,17.15,17.15,0,0,1,6.37-6.45,17.61,17.61,0,0,1,9-2.34,13.38,13.38,0,0,1,6.81,1.91,11.44,11.44,0,0,1,4.86,6.16V106.55l15.17,0,0,47.5h-15v-6.7a12.13,12.13,0,0,1-11.81,7.28Zm4.68-11.38a6.82,6.82,0,0,0,5-2.12,7.14,7.14,0,0,0,2.09-5.22,6.66,6.66,0,0,0-2.09-5.08,7.43,7.43,0,0,0-10.22.11,7.29,7.29,0,0,0,0,10.22A7,7,0,0,0,247.34,143.2Z" transform="translate(-65.95 -55.74)"/><path class="cls-1" d="M299.11,144.5a24.33,24.33,0,0,0,4.43-.44,19.32,19.32,0,0,0,4.79-1.58l1.72,9.29a24.7,24.7,0,0,1-5.79,2.09,32.2,32.2,0,0,1-7.17.72,28.07,28.07,0,0,1-12.2-2.38,17.05,17.05,0,0,1-7.45-6.55,18.32,18.32,0,0,1-2.52-9.65,17.63,17.63,0,0,1,2.7-9.79,18.26,18.26,0,0,1,7.23-6.48,21.75,21.75,0,0,1,10-2.31q8.14,0,12.46,5.08t4.32,14.44l-21.46,2.73Q292.56,144.5,299.11,144.5ZM289,133.05l11.3-2.38a5.2,5.2,0,0,0-1.58-3.42,4.79,4.79,0,0,0-3.24-1.11,5.7,5.7,0,0,0-4.57,2A8.25,8.25,0,0,0,289,133.05Z" transform="translate(-65.95 -55.74)"/><path class="cls-1" d="M328.27,154.58a34.22,34.22,0,0,1-6.55-.65,29,29,0,0,1-6-1.8l2.09-9.07a18.58,18.58,0,0,0,4.54,1.47,24.74,24.74,0,0,0,5.11.61c2.4,0,3.6-.64,3.6-1.94a1.46,1.46,0,0,0-1.12-1.37,15.55,15.55,0,0,0-2.88-.75q-1.75-.33-3.78-.87a13.83,13.83,0,0,1-3.78-1.65,8.51,8.51,0,0,1-2.88-3.21,11.63,11.63,0,0,1-1.11-5.47,10.77,10.77,0,0,1,4.5-9.07q4.5-3.39,12.34-3.39a34.76,34.76,0,0,1,5.66.44,14.39,14.39,0,0,1,5,1.8l-1.51,8.78a20.59,20.59,0,0,0-8-1.58,12.33,12.33,0,0,0-3.86.43,1.51,1.51,0,0,0-1.18,1.44c0,.53.38.93,1.15,1.22a20.92,20.92,0,0,0,3,.83,33.84,33.84,0,0,1,3.85,1.08,16.45,16.45,0,0,1,3.85,1.91,9.44,9.44,0,0,1,3,3.27,12,12,0,0,1-3.1,14.3Q336,154.58,328.27,154.58Z" transform="translate(-65.95 -55.74)"/><path class="cls-2" d="M67.59,128.12a8.33,8.33,0,0,0,2,3l.22.25c.27.28.54.52,1.78,1.75,1.77,1.76,1.72,1.78,2,2a6.59,6.59,0,0,0,5,1,7.44,7.44,0,0,0,4-2,6.73,6.73,0,0,0,2-3,5.75,5.75,0,0,0,0-4,6.09,6.09,0,0,0-3-3,9.55,9.55,0,0,0-5-1,20.35,20.35,0,0,0-5,1s-1,.29-2,.65A2.83,2.83,0,0,0,67.59,128.12Z" transform="translate(-65.95 -55.74)"/><path class="cls-2" d="M99.93,119.57a8.41,8.41,0,0,0-3.1,1.84l-.26.21c-.29.24-.54.5-1.84,1.68-1.85,1.67-1.87,1.61-2.11,1.89a6.61,6.61,0,0,0-1.26,4.94,7.51,7.51,0,0,0,1.78,4.1A7,7,0,0,0,96,136.39a5.83,5.83,0,0,0,4,.21,6.09,6.09,0,0,0,3.16-2.83,9.57,9.57,0,0,0,1.27-4.94,19.66,19.66,0,0,0-.74-5.05s-.23-1-.54-2A2.83,2.83,0,0,0,99.93,119.57Z" transform="translate(-65.95 -55.74)"/><path class="cls-3" d="M75.91,130.5c1.39.27,2.8.37,4.17.73a15.49,15.49,0,0,1,5.09,2.54,23.06,23.06,0,0,1,4,4,40,40,0,0,1,3.27,4.31,42.06,42.06,0,0,0,6.75,8.45,14.56,14.56,0,0,0,4.37,2.82,21,21,0,0,0,5.7,1.19c1.73.2,1.71-2.5,0-2.7a15.42,15.42,0,0,1-5.63-1.41,15.08,15.08,0,0,1-4-3.37,44.39,44.39,0,0,1-3.71-4.62c-.75-1.1-1.4-2.27-2.19-3.34-2.19-3-4.64-6-7.74-8.08a17.18,17.18,0,0,0-5.15-2.4c-1.37-.37-2.78-.47-4.17-.73-1.7-.33-2.42,2.28-.72,2.6Z" transform="translate(-65.95 -55.74)"/><path class="cls-3" d="M96.78,127.87a20.08,20.08,0,0,0-2.86,10,17.56,17.56,0,0,0,.65,5.91A16.31,16.31,0,0,0,96.2,147,10.35,10.35,0,0,0,98,149.35c1.3,1.15,3.21-.76,1.91-1.9a8.38,8.38,0,0,1-1.46-2,12,12,0,0,1-1.37-2.75,16.11,16.11,0,0,1-.44-5.23,17.06,17.06,0,0,1,2.48-8.25,1.35,1.35,0,0,0-2.33-1.37Z" transform="translate(-65.95 -55.74)"/></svg>